<?xml version="1.0" encoding="utf-8"?>
<!DOCTYPE svg PUBLIC "-//W3C//DTD SVG 20010904//EN" "http://www.w3.org/TR/2001/REC-SVG-20010904/DTD/svg10.dtd">
<svg version="1.0" xmlns="http://www.w3.org/2000/svg" width="602pt" height="155pt" viewBox="0 0 602 155" style="" preserveAspectRatio="xMidYMid meet">
<g fill="#B7091DFF" stroke="#B7091DFF">
<path d="M 142.189 27.581 L 140.000 29.113 140.000 69.000 L 140.000 108.887 142.189 110.419 C 145.473 112.720 221.527 112.720 224.811 110.419 L 227.000 108.887 227.000 69.000 L 227.000 29.113 224.811 27.581 C 221.527 25.280 145.473 25.280 142.189 27.581 M 172.000 40.839 C 172.000 43.965 171.535 44.891 169.500 45.818 C 167.026 46.945 166.221 49.714 167.835 51.550 C 168.294 52.073 169.488 54.750 170.488 57.500 C 171.489 60.250 173.742 65.650 175.496 69.500 C 177.249 73.350 179.738 79.161 181.025 82.414 L 183.366 88.329 184.663 85.414 C 189.248 75.119 191.220 70.495 194.438 62.500 C 196.431 57.550 198.497 52.719 199.030 51.764 C 200.628 48.903 200.144 47.023 197.500 45.818 C 195.465 44.891 195.000 43.965 195.000 40.839 L 195.000 37.000 206.000 37.000 L 217.000 37.000 217.000 41.263 C 217.000 44.679 216.566 45.722 214.814 46.513 C 213.009 47.328 209.098 52.709 209.006 54.504 C 208.992 54.772 207.650 57.896 206.024 61.447 C 201.302 71.758 200.054 74.999 200.801 75.015 C 201.185 75.024 200.915 75.402 200.200 75.855 C 199.485 76.309 198.827 77.652 198.737 78.840 C 198.648 80.028 198.303 81.000 197.971 81.000 C 197.172 81.000 192.475 92.255 192.812 93.362 C 192.957 93.837 192.445 94.737 191.676 95.362 C 190.906 95.988 189.427 98.636 188.388 101.246 C 186.678 105.545 186.194 105.993 183.250 105.996 C 181.463 105.998 180.000 105.583 180.000 105.073 C 180.000 104.563 178.371 100.626 176.380 96.323 C 174.389 92.020 170.754 83.775 168.301 78.000 C 165.849 72.225 162.704 65.025 161.312 62.000 C 159.920 58.975 158.080 54.925 157.223 53.000 C 155.180 48.412 153.067 46.000 151.088 46.000 C 149.803 46.000 149.556 45.110 149.843 41.500 L 150.201 37.000 161.101 37.000 L 172.000 37.000 172.000 40.839 "/></g>
<g fill="#B7091DFF" stroke="#B7091DFF">
<path d="M 332.945 36.450 C 325.852 39.064 321.297 41.936 317.653 46.093 C 314.204 50.028 313.202 51.789 310.141 59.297 C 308.444 63.458 308.723 81.620 310.564 86.909 C 314.641 98.616 318.832 102.854 331.297 107.874 C 335.513 109.571 354.215 109.284 360.617 107.423 L 366.043 105.846 365.771 86.673 L 365.500 67.500 353.500 67.500 L 341.500 67.500 341.500 73.500 L 341.500 79.500 347.250 79.800 L 353.000 80.100 353.000 88.550 L 353.000 97.000 345.838 97.000 C 334.494 97.000 328.306 92.494 324.650 81.572 C 320.422 68.944 325.049 55.077 335.221 49.887 C 338.389 48.271 341.110 47.804 347.131 47.844 C 351.423 47.872 355.820 48.368 356.902 48.947 C 357.983 49.526 359.337 50.000 359.909 50.000 C 361.394 50.000 363.749 45.057 364.155 41.089 C 364.469 38.018 364.181 37.593 361.000 36.431 C 356.355 34.734 337.570 34.747 332.945 36.450 "/></g>
<g fill="#B7091DFF" stroke="#B7091DFF">
<path d="M 388.363 57.250 C 378.757 63.670 374.904 73.242 376.352 87.091 C 377.980 102.665 388.194 111.085 403.722 109.654 C 410.888 108.993 414.349 107.445 418.771 102.923 C 424.263 97.305 426.001 92.211 425.990 81.761 C 425.976 68.413 422.692 61.927 413.000 56.109 C 410.210 54.434 407.849 54.007 401.363 54.004 C 393.844 54.000 392.857 54.247 388.363 57.250 M 405.033 66.517 C 409.272 68.709 411.282 73.324 411.353 81.028 C 411.435 90.011 409.264 95.183 404.295 97.842 C 400.893 99.663 399.315 99.248 395.630 95.563 C 388.663 88.597 388.702 74.103 395.704 67.955 C 399.532 64.594 400.905 64.382 405.033 66.517 "/></g>
<g fill="#B7091DFF" stroke="#B7091DFF">
<path d="M 254.452 56.264 C 253.980 57.495 255.136 61.097 264.317 87.000 C 269.443 101.464 269.836 102.560 271.215 106.250 C 272.186 108.848 272.589 109.000 278.505 109.000 L 284.768 109.000 286.808 103.750 C 288.683 98.922 289.779 95.913 295.998 78.500 C 297.177 75.200 298.528 71.600 299.000 70.500 C 301.291 65.164 303.865 56.591 303.402 55.841 C 303.116 55.379 299.778 55.000 295.983 55.000 L 289.085 55.000 286.990 62.250 C 285.838 66.238 284.508 70.625 284.034 72.000 C 283.560 73.375 282.380 77.290 281.412 80.701 C 280.443 84.112 279.347 86.714 278.975 86.485 C 278.604 86.255 277.302 82.790 276.082 78.784 C 274.862 74.778 273.490 70.375 273.034 69.000 C 272.578 67.625 271.442 63.913 270.510 60.750 L 268.814 55.000 261.876 55.000 C 257.207 55.000 254.779 55.413 254.452 56.264 "/></g>
<g fill="#B7091DFF" stroke="#B7091DFF">
<path d="M 445.750 44.356 L 440.000 46.358 440.000 50.619 C 440.000 54.820 439.948 54.884 436.250 55.190 C 432.599 55.492 432.492 55.614 432.189 59.824 C 431.821 64.931 433.215 67.000 437.023 67.000 L 439.802 67.000 440.161 84.250 C 440.551 103.000 441.132 105.131 446.664 108.085 C 449.380 109.535 464.214 110.121 465.506 108.828 C 465.875 108.458 465.785 105.758 465.304 102.828 C 464.438 97.542 464.405 97.502 461.070 97.774 C 454.728 98.290 454.000 96.551 454.000 80.895 L 454.000 67.100 459.750 66.800 L 465.500 66.500 465.500 61.000 L 465.500 55.500 459.750 55.200 L 454.000 54.900 454.000 49.573 C 454.000 42.552 452.911 41.863 445.750 44.356 "/></g>
</svg>
